<svg width="256" height="256" viewBox="0 0 256 256" fill="none" xmlns="http://www.w3.org/2000/svg">
<g clip-path="url(#clip0_4_842)">
<rect x="7" y="11" width="244" height="244" rx="122" fill="#D9D9D9"/>
<rect width="256" height="265" fill="black"/>
<path style="mix-blend-mode:screen" d="M179.302 308C283.131 308 367.302 223.83 367.302 120C367.302 16.1705 283.131 -68 179.302 -68C75.4722 -68 -8.69827 16.1705 -8.69827 120C-8.69827 223.83 75.4722 308 179.302 308Z" fill="url(#paint0_radial_4_842)"/>
<path style="mix-blend-mode:screen" d="M75.105 295.483C155.244 295.483 220.21 230.517 220.21 150.378C220.21 70.2383 155.244 5.27252 75.105 5.27252C-5.03431 5.27252 -70 70.2383 -70 150.378C-70 230.517 -5.03431 295.483 75.105 295.483Z" fill="url(#paint1_radial_4_842)"/>
<path style="mix-blend-mode:screen" d="M29.5552 218.415C46.6083 218.415 60.4325 204.59 60.4325 187.537C60.4325 170.484 46.6083 156.66 29.5552 156.66C12.5022 156.66 -1.32199 170.484 -1.32199 187.537C-1.32199 204.59 12.5022 218.415 29.5552 218.415Z" fill="url(#paint2_radial_4_842)"/>
<path style="mix-blend-mode:screen" d="M201.931 166.358C217.67 166.358 230.429 153.599 230.429 137.86C230.429 122.121 217.67 109.363 201.931 109.363C186.193 109.363 173.434 122.121 173.434 137.86C173.434 153.599 186.193 166.358 201.931 166.358Z" fill="url(#paint3_radial_4_842)"/>
<path style="mix-blend-mode:screen" d="M201.931 166.358C217.67 166.358 230.429 153.599 230.429 137.86C230.429 122.121 217.67 109.363 201.931 109.363C186.193 109.363 173.434 122.121 173.434 137.86C173.434 153.599 186.193 166.358 201.931 166.358Z" fill="url(#paint4_radial_4_842)"/>
<path style="mix-blend-mode:screen" d="M220.207 80.347C240.932 70.2522 249.55 45.2678 239.455 24.5428C229.36 3.81781 204.376 -4.79962 183.651 5.29521C162.926 15.39 154.308 40.3744 164.403 61.0994C174.498 81.8244 199.482 90.4418 220.207 80.347Z" fill="url(#paint5_radial_4_842)"/>
<g style="mix-blend-mode:overlay">
<path d="M128.999 244C65.5902 244 13.9995 192.409 13.9995 129C13.9995 65.5908 65.5902 14 128.999 14C192.409 14 243.999 65.5908 243.999 129C243.999 192.409 192.409 244 128.999 244ZM128.999 15.2044C66.2462 15.2044 15.192 66.2586 15.192 129.012C15.192 191.765 66.2462 242.819 128.999 242.819C191.753 242.819 242.807 191.765 242.807 129.012C242.807 66.2586 191.753 15.2044 128.999 15.2044Z" fill="white"/>
</g>
<g filter="url(#filter0_d_4_842)">
<path d="M98 147H145.5" stroke="#FFBE40" stroke-width="6" stroke-linecap="round"/>
<path d="M107.002 164H137.002" stroke="#FFBE40" stroke-width="6" stroke-linecap="round"/>
<path fill-rule="evenodd" clip-rule="evenodd" d="M168.478 122.725H187.845V137.564C186.548 137.687 185.344 138.289 184.468 139.252C183.592 140.215 183.106 141.47 183.106 142.772C183.106 144.074 183.592 145.329 184.468 146.292C185.344 147.255 186.548 147.857 187.845 147.98V165.167C186.548 165.29 185.344 165.892 184.468 166.855C183.592 167.818 183.106 169.073 183.106 170.375C183.106 171.677 183.592 172.933 184.468 173.896C185.344 174.859 186.548 175.461 187.845 175.583V191.458H168.478V122.725Z" fill="#0085E6"/>
<path fill-rule="evenodd" clip-rule="evenodd" d="M186.623 111.342L135.777 63.1823L150.065 48.1708L159.521 57.9648V66.5672L163.149 71.1625L170.526 68.744L179.493 76.8456L177.903 85.0849L182.395 89.8005L191.829 88.2282L199.344 97.4177L186.623 111.342Z" fill="#FF5B8C"/>
<path fill-rule="evenodd" clip-rule="evenodd" d="M55.9372 138.756C55.5514 138.756 55.1693 138.68 54.8128 138.533C54.4563 138.385 54.1324 138.169 53.8596 137.896C53.5868 137.623 53.3705 137.3 53.223 136.943C53.0755 136.587 52.9997 136.205 53 135.819V121.758C52.9997 121.372 53.0755 120.99 53.223 120.633C53.3705 120.277 53.5868 119.953 53.8596 119.68C54.1324 119.408 54.4563 119.191 54.8128 119.044C55.1693 118.896 55.5514 118.821 55.9372 118.821H75.2869L148.265 45.8551C148.816 45.3074 149.561 45 150.338 45C151.115 45 151.86 45.3074 152.411 45.8551L162.363 55.8044C162.906 56.358 163.21 57.1022 163.21 57.8774C163.21 58.6525 162.906 59.3968 162.363 59.9503C161.98 60.3302 161.675 60.7822 161.468 61.2804C161.26 61.7785 161.153 62.3129 161.153 62.8526C161.153 63.3923 161.26 63.9267 161.468 64.4248C161.675 64.923 161.98 65.375 162.363 65.7549C163.136 66.5215 164.181 66.9503 165.27 66.947C166.358 66.9438 167.401 66.5087 168.169 65.7374C168.44 65.4661 168.762 65.251 169.116 65.1042C169.47 64.9574 169.85 64.8818 170.233 64.8818C170.617 64.8818 170.997 64.9574 171.351 65.1042C171.705 65.251 172.027 65.4661 172.298 65.7374L182.249 75.6867C182.797 76.2375 183.104 76.9828 183.104 77.7596C183.104 78.5364 182.797 79.2817 182.249 79.8326C181.479 80.6023 181.046 81.6463 181.046 82.7348C181.046 83.8234 181.479 84.8674 182.249 85.6371C183.019 86.4068 184.063 86.8393 185.152 86.8393C186.24 86.8393 187.284 86.4068 188.054 85.6371C188.605 85.0894 189.351 84.782 190.128 84.782C190.905 84.782 191.65 85.0894 192.201 85.6371L202.136 95.5701C202.409 95.8414 202.627 96.1643 202.775 96.5201C202.924 96.8759 203 97.2575 203 97.643C203 98.0285 202.924 98.4102 202.775 98.766C202.627 99.1218 202.409 99.4447 202.136 99.716L183.025 118.821H188.381C189.157 118.824 189.901 119.135 190.448 119.686C190.995 120.236 191.301 120.981 191.3 121.758V135.819C191.301 136.595 190.995 137.34 190.448 137.891C189.901 138.441 189.157 138.752 188.381 138.756C187.838 138.746 187.298 138.846 186.793 139.047C186.288 139.249 185.828 139.549 185.441 139.93C185.053 140.311 184.745 140.766 184.535 141.267C184.325 141.768 184.217 142.306 184.217 142.85C184.217 143.393 184.325 143.931 184.535 144.433C184.745 144.934 185.053 145.388 185.441 145.769C185.828 146.15 186.288 146.45 186.793 146.652C187.298 146.854 187.838 146.953 188.381 146.944C189.157 146.947 189.901 147.258 190.448 147.809C190.995 148.359 191.301 149.104 191.3 149.88V163.942C191.301 164.718 190.995 165.463 190.448 166.013C189.901 166.564 189.157 166.875 188.381 166.878C187.293 166.878 186.249 167.311 185.48 168.08C184.71 168.849 184.278 169.893 184.278 170.981C184.278 172.069 184.71 173.113 185.48 173.882C186.249 174.652 187.293 175.084 188.381 175.084C189.155 175.084 189.898 175.391 190.445 175.939C190.992 176.486 191.3 177.228 191.3 178.002V192.063C191.301 192.839 190.995 193.584 190.448 194.135C189.901 194.686 189.157 194.997 188.381 195H55.9372C55.5514 195 55.1693 194.925 54.8128 194.777C54.4563 194.63 54.1324 194.413 53.8596 194.141C53.5868 193.868 53.3705 193.544 53.223 193.187C53.0755 192.831 52.9997 192.449 53 192.063V177.998C53 177.614 53.0761 177.233 53.2239 176.877C53.3718 176.522 53.5884 176.2 53.8614 175.928C54.1344 175.657 54.4583 175.443 54.8146 175.297C55.1708 175.152 55.5524 175.078 55.9372 175.08C57.0255 175.08 58.0692 174.648 58.8387 173.879C59.6083 173.109 60.0406 172.066 60.0406 170.978C60.0406 169.89 59.6083 168.846 58.8387 168.077C58.0692 167.307 57.0255 166.875 55.9372 166.875C55.5514 166.875 55.1693 166.799 54.8128 166.652C54.4563 166.505 54.1324 166.288 53.8596 166.015C53.5868 165.743 53.3705 165.419 53.223 165.062C53.0755 164.706 52.9997 164.324 53 163.938V149.88C52.9997 149.495 53.0755 149.113 53.223 148.756C53.3705 148.4 53.5868 148.076 53.8596 147.803C54.1324 147.53 54.4563 147.314 54.8128 147.167C55.1693 147.019 55.5514 146.943 55.9372 146.944C57.0232 146.944 58.0646 146.512 58.8325 145.745C59.6004 144.977 60.0318 143.935 60.0318 142.85C60.0318 141.764 59.6004 140.723 58.8325 139.955C58.0646 139.187 57.0232 138.756 55.9372 138.756ZM114.645 118.821L116.528 116.938L111.93 107.939C111.353 106.811 111.149 105.529 111.346 104.277C111.544 103.026 112.134 101.869 113.03 100.974C113.927 100.079 115.085 99.491 116.337 99.2953C117.589 99.0997 118.871 99.3062 119.998 99.8853L128.987 104.481L136.191 97.294C137.085 96.397 138.241 95.8068 139.492 95.6085C140.743 95.4103 142.024 95.6142 143.152 96.1909C144.279 96.7677 145.195 97.6874 145.766 98.8177C146.337 99.9479 146.535 101.23 146.33 102.48L144.724 112.518L153.76 117.096C154.573 117.505 155.282 118.095 155.832 118.821H174.749L181.833 111.738L136.258 66.1529L83.5801 118.821H114.645ZM138.59 113.685L140.542 101.546C140.56 101.495 140.542 101.477 140.542 101.477C140.501 101.432 140.447 101.402 140.387 101.391C140.366 101.41 140.342 101.427 140.318 101.442L131.628 110.131C131.191 110.57 130.626 110.858 130.014 110.954C129.402 111.051 128.776 110.95 128.225 110.667L117.321 105.106C117.27 105.071 117.253 105.071 117.253 105.071C117.191 105.098 117.142 105.147 117.115 105.209C117.131 105.229 117.143 105.253 117.15 105.278L122.73 116.177C122.939 116.586 123.047 117.039 123.047 117.498C123.047 117.958 122.939 118.411 122.73 118.82H144.223L140.163 116.764C139.609 116.484 139.159 116.035 138.876 115.483C138.594 114.93 138.494 114.303 138.59 113.69V113.685ZM189.816 91.5397C187.932 92.5367 185.777 92.9036 183.669 92.5864C181.561 92.2692 179.61 91.2848 178.102 89.7775C176.594 88.2702 175.61 86.3194 175.293 84.2115C174.975 82.1036 175.342 79.9495 176.339 78.0654L169.929 71.6399C168.411 72.4432 166.712 72.8408 164.995 72.7942C163.278 72.7476 161.602 72.2583 160.13 71.3738C158.658 70.4892 157.439 69.2395 156.592 67.7457C155.746 66.2518 155.299 64.5645 155.296 62.8473C155.289 61.2191 155.687 59.6147 156.454 58.1785L150.338 52.074L140.403 62.0233L185.98 107.592L195.931 97.643L189.816 91.5397ZM185.445 180.481C183.41 179.855 181.628 178.592 180.363 176.879C179.098 175.166 178.415 173.093 178.415 170.963C178.415 168.833 179.098 166.76 180.363 165.047C181.628 163.334 183.41 162.071 185.445 161.445V152.358C183.41 151.732 181.628 150.469 180.363 148.756C179.098 147.043 178.415 144.97 178.415 142.84C178.415 140.711 179.098 138.637 180.363 136.924C181.628 135.211 183.41 133.949 185.445 133.322V124.678H171.382V189.145H185.445V180.49V180.481ZM58.8569 133.332C60.8925 133.958 62.6738 135.22 63.9391 136.934C65.2044 138.647 65.8872 140.72 65.8872 142.85C65.8872 144.979 65.2044 147.053 63.9391 148.766C62.6738 150.479 60.8925 151.741 58.8569 152.368V161.454C60.8925 162.081 62.6738 163.343 63.9391 165.056C65.2044 166.769 65.8872 168.843 65.8872 170.972C65.8872 173.102 65.2044 175.175 63.9391 176.889C62.6738 178.602 60.8925 179.864 58.8569 180.49V189.145H72.9205V170.091C72.9205 169.312 73.23 168.565 73.7808 168.014C74.3316 167.463 75.0787 167.154 75.8577 167.154C76.6367 167.154 77.3838 167.463 77.9346 168.014C78.4855 168.565 78.7949 169.312 78.7949 170.091V189.144H165.525V124.694H78.7949V143.73C78.7949 144.509 78.4855 145.256 77.9346 145.807C77.3838 146.358 76.6367 146.667 75.8577 146.667C75.0787 146.667 74.3316 146.358 73.7808 145.807C73.23 145.256 72.9205 144.509 72.9205 143.73V124.694H58.8569V133.332Z" fill="#EBEBEB"/>
<path fill-rule="evenodd" clip-rule="evenodd" d="M75.8543 153.991C76.2386 153.989 76.6196 154.062 76.9754 154.208C77.3312 154.353 77.6548 154.567 77.9276 154.838C78.4701 155.393 78.7792 156.135 78.7915 156.911C78.7825 157.688 78.4729 158.431 77.9276 158.984C77.6563 159.258 77.3333 159.475 76.9775 159.624C76.6216 159.772 76.2399 159.849 75.8543 159.849C75.4688 159.849 75.087 159.772 74.7312 159.624C74.3753 159.475 74.0524 159.258 73.781 158.984C73.5071 158.713 73.2897 158.39 73.1413 158.034C72.9929 157.678 72.9165 157.296 72.9165 156.911C72.9165 156.525 72.9929 156.144 73.1413 155.788C73.2897 155.432 73.5071 155.109 73.781 154.838C74.0538 154.567 74.3775 154.353 74.7332 154.208C75.089 154.062 75.47 153.989 75.8543 153.991Z" fill="#FFBE40"/>
</g>
</g>
<defs>
<filter id="filter0_d_4_842" x="23" y="21" width="210" height="210" filterUnits="userSpaceOnUse" color-interpolation-filters="sRGB">
<feFlood flood-opacity="0" result="BackgroundImageFix"/>
<feColorMatrix in="SourceAlpha" type="matrix" values="0 0 0 0 0 0 0 0 0 0 0 0 0 0 0 0 0 0 127 0" result="hardAlpha"/>
<feOffset dy="6"/>
<feGaussianBlur stdDeviation="15"/>
<feComposite in2="hardAlpha" operator="out"/>
<feColorMatrix type="matrix" values="0 0 0 0 0 0 0 0 0 0 0 0 0 0 0 0 0 0 0.4 0"/>
<feBlend mode="normal" in2="BackgroundImageFix" result="effect1_dropShadow_4_842"/>
<feBlend mode="normal" in="SourceGraphic" in2="effect1_dropShadow_4_842" result="shape"/>
</filter>
<radialGradient id="paint0_radial_4_842" cx="0" cy="0" r="1" gradientUnits="userSpaceOnUse" gradientTransform="translate(179.302 120) scale(188)">
<stop offset="0.1" stop-color="#CE4140"/>
<stop offset="0.19" stop-color="#A13232"/>
<stop offset="0.28" stop-color="#762524"/>
<stop offset="0.38" stop-color="#521919"/>
<stop offset="0.48" stop-color="#341010"/>
<stop offset="0.58" stop-color="#1D0909"/>
<stop offset="0.7" stop-color="#0C0403"/>
<stop offset="0.83" stop-color="#030000"/>
<stop offset="0.99"/>
</radialGradient>
<radialGradient id="paint1_radial_4_842" cx="0" cy="0" r="1" gradientUnits="userSpaceOnUse" gradientTransform="translate(75.105 150.378) scale(145.105 145.105)">
<stop offset="0.1" stop-color="#6300EB"/>
<stop offset="0.14" stop-color="#5900D3"/>
<stop offset="0.22" stop-color="#4400A2"/>
<stop offset="0.31" stop-color="#320076"/>
<stop offset="0.41" stop-color="#220052"/>
<stop offset="0.5" stop-color="#150034"/>
<stop offset="0.61" stop-color="#0C001D"/>
<stop offset="0.71" stop-color="#05000C"/>
<stop offset="0.84" stop-color="#010003"/>
<stop offset="0.99"/>
</radialGradient>
<radialGradient id="paint2_radial_4_842" cx="0" cy="0" r="1" gradientUnits="userSpaceOnUse" gradientTransform="translate(29.5552 187.537) scale(30.8772)">
<stop offset="0.1" stop-color="#6300EB"/>
<stop offset="0.14" stop-color="#5900D3"/>
<stop offset="0.22" stop-color="#4400A2"/>
<stop offset="0.31" stop-color="#320076"/>
<stop offset="0.41" stop-color="#220052"/>
<stop offset="0.5" stop-color="#150034"/>
<stop offset="0.61" stop-color="#0C001D"/>
<stop offset="0.71" stop-color="#05000C"/>
<stop offset="0.84" stop-color="#010003"/>
<stop offset="0.99"/>
</radialGradient>
<radialGradient id="paint3_radial_4_842" cx="0" cy="0" r="1" gradientUnits="userSpaceOnUse" gradientTransform="translate(201.931 137.86) scale(28.4974 28.4975)">
<stop offset="0.1" stop-color="#CE4140"/>
<stop offset="0.19" stop-color="#A13232"/>
<stop offset="0.28" stop-color="#762524"/>
<stop offset="0.38" stop-color="#521919"/>
<stop offset="0.48" stop-color="#341010"/>
<stop offset="0.58" stop-color="#1D0909"/>
<stop offset="0.7" stop-color="#0C0403"/>
<stop offset="0.83" stop-color="#030000"/>
<stop offset="0.99"/>
</radialGradient>
<radialGradient id="paint4_radial_4_842" cx="0" cy="0" r="1" gradientUnits="userSpaceOnUse" gradientTransform="translate(201.931 137.86) scale(28.4974 28.4975)">
<stop offset="0.1" stop-color="#CE4140"/>
<stop offset="0.19" stop-color="#A13232"/>
<stop offset="0.28" stop-color="#762524"/>
<stop offset="0.38" stop-color="#521919"/>
<stop offset="0.48" stop-color="#341010"/>
<stop offset="0.58" stop-color="#1D0909"/>
<stop offset="0.7" stop-color="#0C0403"/>
<stop offset="0.83" stop-color="#030000"/>
<stop offset="0.99"/>
</radialGradient>
<radialGradient id="paint5_radial_4_842" cx="0" cy="0" r="1" gradientUnits="userSpaceOnUse" gradientTransform="translate(201.909 42.8647) scale(41.7407 41.7407)">
<stop offset="0.1" stop-color="#CE4140"/>
<stop offset="0.19" stop-color="#A13232"/>
<stop offset="0.28" stop-color="#762524"/>
<stop offset="0.38" stop-color="#521919"/>
<stop offset="0.48" stop-color="#341010"/>
<stop offset="0.58" stop-color="#1D0909"/>
<stop offset="0.7" stop-color="#0C0403"/>
<stop offset="0.83" stop-color="#030000"/>
<stop offset="0.99"/>
</radialGradient>
<clipPath id="clip0_4_842">
<rect width="256" height="256" rx="128" fill="white"/>
</clipPath>
</defs>
</svg>
