<svg width="19" height="20" viewBox="0 0 19 20" fill="none" xmlns="http://www.w3.org/2000/svg">
<path d="M15.02 3.16396C14.2688 2.41698 13.2535 1.99603 12.1941 1.99229C11.1347 1.98855 10.1165 2.40231 9.35999 3.14396L2.69999 9.68796C2.51115 9.87389 2.25635 9.97743 1.99134 9.97593C1.72634 9.97443 1.47272 9.86801 1.28599 9.67996C1.1937 9.58693 1.12072 9.47656 1.07124 9.35521C1.02177 9.23386 0.996776 9.10393 0.997706 8.97288C0.998635 8.84184 1.02547 8.71227 1.07666 8.59164C1.12785 8.471 1.20239 8.36168 1.29599 8.26996L7.95399 1.72796C9.08677 0.616058 10.612 -0.00471621 12.1993 0.000150471C13.7866 0.00501715 15.3081 0.635132 16.434 1.75396C16.9926 2.30916 17.4358 2.96933 17.7383 3.69648C18.0408 4.42363 18.1965 5.20341 18.1965 5.99096C18.1965 6.77852 18.0408 7.5583 17.7383 8.28545C17.4358 9.0126 16.9926 9.67276 16.434 10.228L7.76999 18.856C7.03329 19.5883 6.03674 19.9993 4.99799 19.9993C3.95925 19.9993 2.9627 19.5883 2.22599 18.856C1.86214 18.4941 1.5734 18.0639 1.37638 17.5901C1.17935 17.1162 1.07792 16.6081 1.07792 16.095C1.07792 15.5818 1.17935 15.0737 1.37638 14.5999C1.5734 14.126 1.86214 13.6958 2.22599 13.334L10.306 5.28796C10.4937 5.10159 10.7475 4.997 11.012 4.997C11.2765 4.997 11.5303 5.10159 11.718 5.28796C11.8106 5.38031 11.8841 5.49003 11.9343 5.61083C11.9845 5.73164 12.0103 5.86116 12.0103 5.99196C12.0103 6.12277 11.9845 6.25229 11.9343 6.37309C11.8841 6.4939 11.8106 6.60362 11.718 6.69596L3.63999 14.742C3.46167 14.9193 3.32015 15.1301 3.22358 15.3623C3.12702 15.5945 3.0773 15.8435 3.0773 16.095C3.0773 16.3464 3.12702 16.5954 3.22358 16.8276C3.32015 17.0598 3.46167 17.2707 3.63999 17.448C4.00103 17.808 4.49011 18.0102 4.99999 18.0102C5.50988 18.0102 5.99895 17.808 6.35999 17.448L15.02 8.81996C15.3927 8.44935 15.6885 8.00871 15.8904 7.52338C16.0922 7.03804 16.1961 6.5176 16.1961 5.99196C16.1961 5.46633 16.0922 4.94588 15.8904 4.46055C15.6885 3.97522 15.3927 3.53458 15.02 3.16396Z" fill="black"/>
</svg>
